# xmcd
#
# Track frame offsets:
#	150
#	15541
#	34757
#	49906
#	68220
#	84953
#	100634
#	117469
#	129798
#	147511
#	164765
#	183879
#	200267
#	215653
#	238058
#	266802
#
# Disc length: 3563 seconds
#
# Revision: 1
# Processed by: cddbd v1.5.2PL0 Copyright (c) Steve Scherf et al.
# Submitted via: audiograbber 1.83.01
#
DISCID=e40de910
DTITLE=PATTY LOVELESS - 90369
DYEAR=2014
DGENRE=FEMALE
TTITLE0=PATTY LOVELESS - YOU WILL
TTITLE1=PATTY LOVELESS - TO HAVE YOU BACK AGAIN
TTITLE2=PATTY LOVELESS - SEND A MESSAGE TO MY HEART
TTITLE3=PATTY LOVELESS - MY KIND OF WOMAN/MY KIND OF MAN
TTITLE4=PATTY LOVELESS - THAT'S THE KIND OF MOOD I'M IN
TTITLE5=PATTY LOVELESS - THE LAST THING ON MY MIND
TTITLE6=PATTY LOVELESS - OUT OF CONTROL RAGING FIRE
TTITLE7=PATTY LOVELESS - THE BOYS ARE IN TOWN
TTITLE8=PATTY LOVELESS - ON YOUR WAY HOME
TTITLE9=PATTY LOVELESS - LOVIN' ALL NIGHT
TTITLE10=PATTY LOVELESS - I WANNA BELIEVE
TTITLE11=PATTY LOVELESS - DRAGGIN' MY HEART AROUND
TTITLE12=PATTY LOVELESS - LOOKING FOR A HEARTACHE LIKE YOU
TTITLE13=PATTY LOVELESS - BORN-AGAIN FOOL
TTITLE14=PATTY LOVELESS - NOTHIN' LIKE THE LONELY
TTITLE15=PATTY LOVELESS - Data Track
EXTD=
EXTT0=
EXTT1=
EXTT2=
EXTT3=
EXTT4=
EXTT5=
EXTT6=
EXTT7=
EXTT8=
EXTT9=
EXTT10=
EXTT11=
EXTT12=
EXTT13=
EXTT14=
EXTT15=
PLAYORDER=
